<svg width="180" height="130" viewBox="0 0 180 130" fill="none" xmlns="http://www.w3.org/2000/svg">
<path fill-rule="evenodd" clip-rule="evenodd" d="M25.3967 0.791301C23.8691 1.6601 22.1237 3.45201 21.2437 5.05534C20.7184 6.01299 20.3257 6.22059 18.62 6.44371C15.2104 6.88955 13.7041 8.18246 11.7936 12.3014C11.1825 13.6195 10.3947 14.7848 10.0428 14.8919C9.69133 14.9986 8.86678 15.2023 8.2106 15.3447C4.16321 16.2228 2.07822 23.8084 2.6129 35.7092L2.83066 40.5595L1.72562 41.0007C0.161966 41.6247 -0.312861 43.6746 0.195136 47.605C0.84915 52.666 2.60064 55.8866 4.69933 55.8866C5.78202 55.8866 5.85737 56.0023 7.03849 59.4759C11.3282 72.0934 17.0178 78.9227 21.376 76.6861L22.6325 76.0412L23.9949 77.3659C25.7071 79.0306 28.1671 80.5672 29.6536 80.9001C31.0279 81.2078 33.3689 80.5858 34.4801 79.6177C35.265 78.9336 35.3464 78.9394 37.3081 79.8078C48.0305 84.5549 54.9936 71.2902 53.2251 49.4842C52.9828 46.4964 52.7586 43.8931 52.7265 43.6994C52.6735 43.3805 59.6838 41.7725 59.9372 42.0453C59.9964 42.1085 60.213 44.2326 60.4193 46.7649C60.995 53.8336 62.3107 58.8717 64.8059 63.5657L65.9402 65.6995L66.1147 80.9812C66.2106 89.3859 66.4002 96.337 66.5365 96.4274C66.9414 96.6967 73.6582 97.7506 77.6735 98.1751C82.4809 98.683 91.7536 98.6807 96.5253 98.1701C101.434 97.6451 106.621 96.642 107.255 96.096C107.682 95.7286 107.723 93.4644 107.517 81.779C107.355 72.5881 107.397 67.6485 107.64 67.1592C107.842 66.753 109.523 65.1943 111.375 63.6965C113.227 62.1983 116.133 59.3995 117.833 57.4768C121.337 53.5135 123.076 50.2331 124.065 45.7145L124.69 42.8613L125.941 43.0185L127.192 43.1756L126.885 47.494C126.342 55.1366 126.587 63.8005 127.445 67.3335C128.938 73.4717 131.807 78.3484 134.866 79.9417C137.092 81.1019 140.206 81.0666 142.558 79.8551L144.317 78.9491L146.444 80.0274C147.614 80.6207 148.977 81.1026 149.472 81.0988C150.821 81.0879 153.018 79.8811 155.241 77.9313C157.132 76.2721 157.274 76.215 158.306 76.6927C163.03 78.8792 168.209 72.8508 172.762 59.8639C174.117 56.0003 174.189 55.8866 175.272 55.8866C177.345 55.8866 179.089 52.7172 179.784 47.6864C180.294 43.9912 179.932 42.3724 178.361 41.3356L177.186 40.5595L177.398 35.7092C177.78 26.9498 176.574 19.6533 174.336 17.1901C173.299 16.0478 172.284 15.534 170.004 14.9962C169.305 14.8317 168.892 14.2823 168.29 12.7204C166.722 8.64732 164.427 6.57292 161.288 6.39094C159.707 6.29936 159.476 6.14919 158.248 4.41238C156.72 2.25068 156.282 1.83199 154.444 0.77772C152.513 -0.3301 149.461 -0.247062 147.012 0.979883C141.367 3.80822 134.761 14.3246 131.173 26.1936C130.431 28.6509 129.628 30.6621 129.39 30.6629C129.152 30.664 128.157 30.4801 127.179 30.2543L125.4 29.8437L125.247 27.573C125.059 24.766 123.871 22.6815 121.346 20.7301C119.725 19.4764 119.49 19.0934 118.792 16.5674C117.336 11.296 115.079 7.7242 112.208 6.14803C110.184 5.03672 107.067 4.79886 104.907 5.59121L103.17 6.22835L100.689 4.82563C96.5098 2.46176 92.9369 2.58787 89.2915 5.22801C87.4837 6.53761 87.4538 6.54421 86.2911 5.90396C83.5557 4.39763 78.4642 5.50662 76.143 8.11417C75.1966 9.17737 75.1346 9.19095 73.4217 8.71251C71.3176 8.12542 69.7482 8.43545 67.4324 9.89599C64.4079 11.8035 63.4352 14.2935 62.0244 23.7393C61.6851 26.0124 61.2835 28.0879 61.1321 28.3514C60.9165 28.7274 52.1096 30.6404 50.5038 30.6602C50.3051 30.6629 49.4204 28.3514 48.5374 25.5234C43.6983 10.0209 35.9608 -0.0274389 28.9051 0.0276611C27.4597 0.0389139 26.2609 0.300058 25.3967 0.791301ZM32.1175 2.30577C32.9106 2.70506 34.1275 3.55678 34.8215 4.19819L36.0834 5.36538L34.377 5.1605C32.0728 4.88383 30.7269 5.56443 29.438 7.65901C24.0155 16.47 25.4475 39.2492 32.6644 58.9707C36.4886 69.4211 41.7835 76.1095 45.8301 75.6008C46.5173 75.5146 47.0798 75.5697 47.0798 75.7238C47.0798 76.3683 43.9842 78.7877 42.8727 79.0123C41.0206 79.386 38.689 78.8598 36.9465 77.6748L35.3681 76.6007L33.8051 77.8847C31.0614 80.1384 28.6386 79.5882 24.7859 75.8355C23.5915 74.6722 22.5243 73.8776 22.4143 74.0692C22.3044 74.2609 21.6366 74.7126 20.9307 75.0731C19.6962 75.7036 19.5856 75.6966 18.0349 74.8888C14.5917 73.0949 10.6987 66.0685 7.64095 56.1299C3.7129 43.3623 2.93522 25.8323 6.00916 19.3472C6.84561 17.5828 7.76353 16.986 10.0663 16.7105L11.8109 16.5018L12.7703 14.0731C14.6033 9.43424 16.7954 7.52281 19.7993 7.94421L21.3013 8.15491L22.7435 5.74952C25.091 1.83432 28.6116 0.541023 32.1175 2.30577ZM154.819 2.83116C155.633 3.41088 156.788 4.80118 157.46 6.01028L158.654 8.15918H160.927C163.058 8.15918 163.291 8.25037 164.639 9.61428C165.587 10.5735 166.424 11.9948 167.093 13.7856L168.109 16.5018L169.903 16.742C172.286 17.0609 173.131 17.6011 173.947 19.3278C175.407 22.4157 175.898 26.7904 175.676 34.7391C175.428 43.6502 174.547 48.8563 171.809 57.5726C168.835 67.0401 165.504 72.9537 162.102 74.803C160.382 75.7381 159.625 75.6784 158.055 74.4829L157.082 73.7433L155.408 75.3831C152.708 78.0279 150.892 79.1648 149.364 79.1668C147.828 79.1687 146.381 78.4834 145.363 77.2716C144.681 76.461 144.677 76.461 143.54 77.2173C141.854 78.3387 138.346 79.2312 136.74 78.9468C135.831 78.7861 134.917 78.2231 134.05 77.2895L132.736 75.8751L134.444 75.6124C138.876 74.9299 142.938 69.9755 146.716 60.645C151.172 49.6429 153.555 37.2384 153.594 24.8444C153.622 16.2209 153.09 12.7131 151.16 8.78119C149.509 5.41854 147.33 4.32895 144.538 5.46976L143.523 5.88417L144.585 4.6906C145.169 4.03444 146.467 3.05001 147.469 2.50328C149.878 1.19019 152.692 1.31592 154.819 2.83116ZM27.4644 2.74269C23.9614 3.8703 21.1741 10.3694 20.5222 18.9293C20.2958 21.9008 20.3009 21.9268 21.0057 21.2551C21.8093 20.4895 22.9933 20.3813 24.0292 20.9777C24.4128 21.1989 24.7275 21.2423 24.7286 21.0747C24.7297 20.9071 24.9745 19.024 25.2723 16.8898C26.2656 9.77066 27.9666 5.9447 30.8321 4.38367L32.4207 3.51875L31.109 2.92856C29.6575 2.2759 29.0158 2.2433 27.4644 2.74269ZM149.41 2.70622C147.615 3.31232 147.553 3.57075 149.029 4.28239C152.221 5.82053 154.031 10.3779 155.075 19.5098C155.271 21.2241 155.338 21.3238 156.025 20.928C156.758 20.5055 157.675 20.5807 158.992 21.1725C159.643 21.465 159.665 21.3308 159.427 18.5044C158.865 11.8307 156.593 5.37314 154.22 3.70733C152.693 2.63521 150.793 2.23981 149.41 2.70622ZM99.2856 6.76422C99.821 7.06416 100.635 7.74205 101.094 8.27093C101.92 9.22393 101.923 9.25846 101.388 12.0911C101.091 13.6634 100.481 19.0154 100.032 23.9845C99.3548 31.4672 99.2888 33.3178 99.6468 34.7577C100.604 38.6116 99.6162 42.159 97.1944 43.5609C95.7375 44.4041 93.4654 44.2792 92.5608 43.3056C92.0434 42.7484 92.0882 42.691 93.0612 42.663L94.1299 42.6324L93.1384 42.2428C92.0416 41.8117 91.7842 41.0977 92.7779 41.2432C93.5808 41.3608 93.5891 41.3251 93.5891 37.7979C93.5891 35.0336 93.5426 34.8559 92.868 35.0456C92.4714 35.157 92.1469 35.1104 92.1469 34.942C92.1469 34.185 96.9579 33.8191 97.3743 34.5443C97.8528 35.3778 98.0049 40.2379 97.5817 41.1699L97.1537 42.1116L97.9296 41.1497C98.6114 40.3046 98.69 39.8184 98.5767 37.1379C98.408 33.1412 98.0868 32.8502 94.1299 33.1105L91.2456 33.3007L93.0483 32.4032L94.8509 31.5053L93.5555 31.4731L92.2605 31.4409L92.0658 24.7474C91.8426 17.0796 92.1361 10.7303 92.7443 10.0764C92.974 9.82964 93.7041 9.49012 94.3668 9.32132C95.4621 9.04272 95.395 9.0109 93.6352 8.97481C91.9173 8.93989 91.7514 8.86617 92.1682 8.32564C92.4267 7.99039 93.1362 7.47237 93.7448 7.17475L94.8509 6.63345L93.4088 6.85075C92.6156 6.96987 91.5077 7.4161 90.9467 7.84177C89.524 8.92127 89.3535 8.47232 90.717 7.23722C91.7482 6.30402 92.1112 6.21904 95.0766 6.21904C97.153 6.21904 98.6607 6.41422 99.2856 6.76422ZM36.5751 8.94183C38.5242 10.461 41.0087 14.1201 42.7515 18.0376C44.5221 22.018 47.5243 30.9807 47.2478 31.4618C47.132 31.6636 46.7488 31.8289 46.3965 31.8289C45.9177 31.8289 45.5976 31.2162 45.13 29.4037C44.0606 25.26 41.7247 18.9704 40.1657 16.0381C38.1114 12.1733 35.2069 8.93524 33.7954 8.93524C31.5633 8.93524 30.1439 12.1093 29.2844 19.024C28.7897 23.0013 28.7767 23.0381 28.7378 20.5761C28.6556 15.3777 30.0263 10.0815 31.8557 8.53285C33.1645 7.42503 34.8132 7.56782 36.5751 8.94183ZM84.8226 8.18401C85.3807 8.41101 86.2839 9.05475 86.829 9.61467C87.6914 10.4998 87.823 10.939 87.8407 12.9851C87.8518 14.2792 88.2272 20.7507 88.6749 27.3666C89.1227 33.9824 89.3863 39.832 89.2608 40.3655C88.927 41.7861 86.9386 43.0817 85.0926 43.0817C83.0671 43.0817 82.4124 42.7771 82.4124 41.8342C82.4124 41.1874 82.5786 41.0973 83.4039 41.2968L84.3954 41.5358L83.5297 41.0027C82.9348 40.6364 82.8173 40.4144 83.1544 40.2933C83.5629 40.1467 83.5485 39.6372 83.0679 37.2341C82.4557 34.1734 82.5072 33.9933 84.1275 33.5288C85.4041 33.1629 86.6018 34.2886 87.2825 36.4942C87.6182 37.5826 87.8107 38.8115 87.7101 39.2255C87.6096 39.6399 87.6744 39.8809 87.854 39.761C88.388 39.4059 88.2257 35.734 87.615 34.3484C86.7641 32.4191 85.3479 31.9352 83.2186 32.8459C80.6858 33.9297 80.6757 33.9254 82.2022 32.4331C83.5885 31.0781 83.5971 31.0528 82.677 31.0528C81.532 31.0528 81.6546 31.501 80.2203 22.0486C79.3093 16.0447 78.9361 14.37 78.4829 14.2516C78.1173 14.1558 78.5002 13.7972 79.5281 13.2726L81.1505 12.4446L79.6182 12.436C78.7753 12.4314 78.086 12.2432 78.086 12.0173C78.086 11.7919 78.9379 11.1908 79.9788 10.6817C81.3146 10.0287 81.6293 9.74932 81.0489 9.7338C80.5964 9.72138 79.6633 9.96428 78.9758 10.2735C77.5909 10.8963 77.3537 10.5816 78.4227 9.54056C79.9525 8.05053 82.9381 7.41766 84.8226 8.18401ZM110.715 8.50452C113.619 9.9476 115.875 13.2699 116.226 16.6221C116.384 18.1257 116.326 18.3096 115.735 18.187C115.049 18.045 114.66 17.4071 113.404 14.3676L112.683 12.6215L112.864 14.4646C112.963 15.4782 112.916 16.3078 112.758 16.3078C112.601 16.3078 111.995 15.768 111.413 15.108C109.924 13.4212 107.831 12.3627 105.983 12.3627C104.62 12.3627 104.405 12.2517 104.405 11.5471C104.405 11.0985 104.77 10.3058 105.216 9.78502L106.028 8.839L105.216 9.10713C104.1 9.47653 104.198 9.08074 105.397 8.38113C106.75 7.59111 108.98 7.64271 110.715 8.50452ZM148.572 9.05281C150.238 10.8463 150.949 13.6443 151.103 19.024L151.232 23.4863L150.9 20.0856C150.519 16.1832 149.052 11.0869 147.942 9.8083C146.631 8.29926 145.271 8.63723 143.183 10.991C142.18 12.1213 140.82 14.0297 140.16 15.231C138.764 17.773 136.205 24.5029 134.993 28.8182C134.173 31.7381 133.483 32.5502 132.991 31.1723C132.662 30.2477 135.173 22.4716 137.222 18.0764C140.112 11.8742 143.66 7.77115 146.134 7.77115C147.064 7.77115 147.684 8.09671 148.572 9.05281ZM16.6446 10.8987C15.1744 12.2882 14.1955 14.848 13.3926 19.4035C12.669 23.5072 12.6679 23.4948 13.7174 22.7549C14.206 22.4103 14.9325 22.1282 15.3316 22.1282C16.7031 22.1282 17.0636 23.5309 17.2752 29.6947C17.5824 38.6303 19.0837 47.4761 21.9056 56.9754L23.3586 61.8681L22.5232 62.596C21.9226 63.1195 21.2534 63.2871 20.1426 63.1917C19.2928 63.1191 18.5973 63.1315 18.5973 63.2192C18.5973 63.3069 19.1882 64.5304 19.9108 65.9381C22.8895 71.7426 26.1015 75.673 29.1823 77.2841C30.949 78.2076 31.9934 78.0966 33.4954 76.8254L34.4494 76.0175L31.661 72.5358C27.1265 66.8733 24.9067 62.4226 22.971 55.1106C18.5382 38.3652 17.4562 23.1557 20.0618 14.2124C20.9761 11.0733 20.9545 10.2456 19.9493 9.95575C18.4859 9.53396 17.9177 9.69577 16.6446 10.8987ZM159.762 10.2336C159.12 10.7396 159.124 10.8657 159.877 14.2109C160.946 18.9588 161.355 22.4332 161.363 26.8617C161.382 36.7724 157.861 54.8265 154.365 62.7501C152.75 66.4111 151.189 68.9248 148.2 72.6789C146.878 74.3385 145.879 75.9263 145.979 76.2073C146.079 76.4882 146.761 77.0241 147.494 77.3985C148.765 78.0473 148.903 78.0473 150.491 77.3946C153.461 76.1739 156.955 71.9816 160.088 65.8784L161.432 63.2592H159.848C156.554 63.2592 156.444 62.5145 158.625 54.9344C161.129 46.2333 162.812 35.2676 162.812 27.6622C162.812 24.8424 162.958 23.6291 163.374 22.9908C164.081 21.9035 165.463 21.8771 166.444 22.9322L167.191 23.7362L166.95 21.8651C166.177 15.8456 164.53 11.2494 162.801 10.2871C161.518 9.57277 160.622 9.55686 159.762 10.2336ZM73.1282 11.6441C74.4063 12.7263 74.9082 14.3133 76.6737 22.8588L78.2277 30.3796L77.2355 31.2985C75.7046 32.7155 73.7523 32.5584 72.0257 30.8798C70.7216 29.6117 68.4585 25.764 68.8003 25.3962C68.8879 25.3015 69.4637 26.0962 70.0792 27.1621C71.3284 29.3246 73.0576 30.6613 74.6093 30.6633C75.3881 30.6644 75.5874 30.5193 75.4266 30.0684C74.7726 28.2342 74.0854 25.1405 74.2841 24.9263C75.1025 24.0458 76.8089 27.5699 76.5465 29.5977C76.3734 30.9322 76.5562 30.9632 77.0108 29.6761C77.4381 28.4666 76.8623 25.3593 76.0266 24.3656C75.2684 23.4638 74.4305 23.4999 73.2674 24.4847C72.4659 25.163 72.3174 25.1917 72.3174 24.6663C72.3174 24.324 72.5607 23.9434 72.8578 23.8208C73.2991 23.6384 73.2295 23.3815 72.4774 22.4196C70.9992 20.5291 69.7103 17.4816 69.8758 16.2682C69.9941 15.4017 69.8718 15.1534 69.278 15.0517C68.6896 14.9512 68.9132 14.6971 70.3344 13.8504C71.3958 13.2183 71.7665 12.8621 71.2358 12.9847C70.74 13.0992 70.0561 13.1954 69.7161 13.1981C69.3757 13.2012 68.5187 13.7507 67.811 14.4192C67.1036 15.0878 66.4478 15.5523 66.3537 15.451C65.9467 15.0133 67.9451 12.6029 69.3995 11.7772C71.34 10.6759 71.9583 10.6538 73.1282 11.6441ZM112.534 17.8944C113.265 19.417 113.188 20.7177 112.314 21.569C111.585 22.2787 111.536 22.2756 110.03 21.4154C109.183 20.9323 107.884 19.9983 107.142 19.3402C105.652 18.0186 105.642 17.792 106.929 14.5609L107.654 12.7422L109.832 14.7727C111.03 15.8899 112.246 17.2945 112.534 17.8944ZM106.568 13.3991C106.568 13.5066 106.244 14.2458 105.847 15.0424C104.844 17.0563 104.91 19.0763 106.025 20.5024C107.095 21.8709 109.745 23.2923 111.225 23.2923C112.453 23.2923 113.779 21.7654 113.779 20.3526C113.779 19.8606 113.902 19.3759 114.053 19.2754C114.96 18.6724 121.16 23.5329 122.174 25.641C122.74 26.8202 122.794 27.7364 122.623 33.381C122.338 42.7884 121.375 46.5763 118.149 50.9769C115.231 54.9581 107.62 60.0222 101.701 61.9205C99.1655 62.7338 97.6289 62.9724 94.6707 63.0132C90.5815 63.0694 89.4259 62.6907 87.3698 60.6202C86.0131 59.2539 86.0571 60.1953 87.4873 63.121L88.596 65.3898L87.6388 64.4213C86.7864 63.5591 86.2781 63.4291 82.9903 63.2316C79.8602 63.0442 78.9296 62.8246 76.871 61.7878C72.6707 59.6722 68.9125 54.785 67.0409 49.005C66.4615 47.2154 66.4467 46.9104 66.9169 46.4405C67.5756 45.7824 77.3083 41.9176 78.3073 41.9176C78.7061 41.9176 79.5 42.4426 80.0711 43.084C81.2983 44.4631 82.9168 45.0168 85.7275 45.0195L87.7805 45.0218L86.8787 47.1424C86.3826 48.3084 85.8956 49.9238 85.7968 50.7317L85.6165 52.2004L86.5694 50.1555C87.8673 47.3694 89.7688 45.2294 90.6063 45.6124C92.289 46.3819 93.9258 46.6663 95.2259 46.4153C96.3778 46.1929 97.1519 45.5818 99.2318 43.2528L101.81 40.3655H103.991C105.652 40.3655 106.252 40.5196 106.509 41.0127C106.787 41.5478 106.889 41.4469 107.096 40.4307C107.407 38.9085 108.011 38.8165 108.011 40.2914C108.011 40.8909 108.229 41.7023 108.495 42.0946C108.917 42.7154 108.962 42.5109 108.843 40.5199L108.706 38.2314L109.431 39.6508C109.831 40.4315 110.765 41.6099 111.51 42.27C112.975 43.5698 113.871 43.888 112.977 42.7907C111.101 40.4885 110.932 38.6116 112.292 35.2241C112.988 33.4924 113.115 33.3806 114.397 33.3752C116.002 33.3682 117.426 32.6383 115.942 32.5836C115.173 32.5549 115.258 32.4459 116.532 31.8363C118.791 30.7548 118.645 30.458 115.924 30.5988C113.712 30.7137 113.22 30.5965 111.305 29.4976C106.78 26.9025 103.684 22.0545 103.684 17.5658C103.684 15.0086 104.59 13.2035 105.874 13.2035C106.256 13.2035 106.568 13.2916 106.568 13.3991ZM8.57691 18.4442C7.28907 19.0476 6.10254 21.351 5.71785 23.9934C5.51126 25.4148 5.51558 25.4206 6.25108 24.7202C6.7342 24.26 7.41309 24.0571 8.19798 24.1382L9.40362 24.2623L9.63652 32.2169C9.93793 42.5222 11.264 50.4069 14.131 58.94C14.8027 60.9395 15.3525 62.8979 15.3525 63.2918C15.3525 64.2618 14.0585 64.9401 12.7465 64.6576C11.8726 64.4698 11.7114 64.5393 11.8859 65.0293C12.2858 66.1504 15.5219 70.8121 17.2222 72.7166C18.7022 74.3738 19.0375 74.5748 19.9263 74.3362C20.9592 74.0584 22.2027 73.0794 22.2027 72.5439C22.2027 72.3809 21.447 70.8804 20.5237 69.2088C13.5523 56.5886 10.2736 40.9258 11.3541 25.402C11.5834 22.1053 11.8643 19.147 11.9779 18.828C12.1195 18.4311 11.9544 18.2479 11.4547 18.2479C11.0531 18.2479 10.5083 18.1668 10.2444 18.0679C9.98012 17.9693 9.22984 18.1385 8.57691 18.4442ZM168.655 18.1459C168.082 18.2572 167.884 18.5056 168.008 18.9561C168.106 19.3134 168.366 22.0506 168.584 25.0384C169.396 36.1535 167.904 47.8184 164.366 58.0208C163.326 61.0187 160.008 68.3443 158.608 70.7303C158.116 71.5696 157.798 72.4927 157.901 72.7818C158.183 73.5745 160.231 74.5838 161.014 74.3164C162.102 73.9447 165.837 69.3213 167.085 66.8011C168.449 64.0461 168.462 63.9332 167.346 64.4807C166.864 64.7166 166.037 64.7926 165.507 64.6495C164.634 64.4135 164.559 64.2517 164.714 62.9511C164.808 62.1603 165.454 59.7623 166.149 57.6223C168.988 48.8804 170.049 42.4127 170.284 32.4109C170.385 28.0996 170.628 24.4346 170.83 24.1653C171.363 23.4533 172.322 23.5724 173.399 24.4847L174.349 25.2887L174.346 24.1937C174.341 22.7424 172.779 19.1811 171.946 18.7205C171.006 18.2013 169.619 17.9588 168.655 18.1459ZM104.385 27.3216C104.297 27.4151 103.576 27.6215 102.783 27.781C101.567 28.0251 101.406 27.9847 101.757 27.5245C101.987 27.2242 102.295 26.1094 102.442 25.0473L102.709 23.1161L103.627 25.1339C104.132 26.2436 104.473 27.228 104.385 27.3216ZM40.8785 28.8023C41.5812 29.5585 41.3732 29.952 40.5284 29.4654C39.317 28.7674 38.787 29.8953 38.7903 33.1641C38.7939 36.8996 39.3477 40.2999 40.6193 44.3932C42.2853 49.7577 43.5883 51.2249 44.7103 48.9991L45.2482 47.9321L45.2627 48.9126C45.2821 50.2284 44.3285 51.6183 43.4062 51.6183C42.3517 51.6183 40.3013 49.1349 39.1011 46.4032C37.527 42.821 36.8513 38.9201 37.0828 34.7473C37.3359 30.1778 38.0068 28.3366 39.418 28.3366C39.9833 28.3366 40.6406 28.5462 40.8785 28.8023ZM105.188 28.9788C105.551 29.3319 105.859 30.0742 105.873 30.6279C105.887 31.1817 106.037 31.9841 106.208 32.4109C106.448 33.012 106.523 32.8153 106.543 31.5379C106.571 29.7522 106.629 29.6885 107.674 30.2904C109.33 31.2445 107.838 35.6172 105.392 36.9769C103.922 37.7933 101.744 37.6423 102.546 36.7794C102.849 36.453 102.802 36.1605 102.361 35.637C101.813 34.9843 101.813 34.9331 102.366 34.9331C102.869 34.9331 102.963 34.4694 102.963 31.9814C102.963 29.3389 102.897 29.0545 102.332 29.266C101.806 29.4631 101.818 29.4057 102.401 28.9195C103.316 28.1578 104.368 28.1803 105.188 28.9788ZM142.153 29.5977C143.152 31.5922 143.064 39.6682 142.005 43.2757C141.057 46.5053 139.227 49.8869 137.828 50.9967C136.9 51.7336 136.744 51.7506 135.845 51.2101C135.143 50.7876 134.838 50.2602 134.754 49.32L134.637 48.0163L135.485 49.0764C136.317 50.1186 136.346 50.1244 137.127 49.4225C138.829 47.8929 141.159 38.8654 141.172 33.7461C141.182 30.1887 140.73 29.2617 139.276 29.8562C138.154 30.3156 138.035 30.0653 138.892 29.0463C139.882 27.8691 141.418 28.129 142.153 29.5977ZM70.0153 31.69C71.093 32.681 71.888 33.5843 71.7827 33.698C71.677 33.8113 69.6047 34.1272 67.1768 34.4C64.7493 34.6724 58.4637 35.7763 53.2089 36.8531C47.9541 37.9299 43.2963 38.8115 42.8582 38.8122L42.0618 38.8134L42.7122 40.4625C43.0699 41.3697 43.6164 42.1652 43.9272 42.2304C44.2376 42.2956 47.7915 41.6495 51.8248 40.7947C60.0696 39.0466 68.0637 37.7455 72.7655 37.3862C75.4418 37.1817 75.9227 37.2345 75.9227 37.732C75.9227 38.1902 75.2316 38.3784 72.768 38.5914C67.3373 39.0606 61.9865 39.9088 52.7625 41.7632C47.8571 42.7496 43.5898 43.4515 43.2801 43.3234C41.7164 42.6778 40.4643 36.0386 41.6717 34.7942C42.5806 33.8575 62.1758 30.0102 66.4914 29.921C67.8521 29.893 68.3118 30.1239 70.0153 31.69ZM131.899 33.0489C135.023 33.7201 137.86 34.4904 138.203 34.7601C139.609 35.8667 138.36 42.6328 136.616 43.3529C135.939 43.6327 125.305 41.2848 124.803 40.7438C124.195 40.09 126.471 40.312 130.87 41.3356C133.163 41.8691 135.36 42.3057 135.753 42.3057C136.493 42.3057 137.088 41.4175 137.576 39.5825C137.817 38.6791 137.764 38.5464 137.22 38.6993C136.571 38.8821 127.666 37.0777 126.145 36.4557C125.418 36.1581 125.316 35.8524 125.316 33.9727C125.316 32.5165 125.461 31.8289 125.767 31.8285C126.015 31.8285 128.774 32.3776 131.899 33.0489ZM105.75 34.514C105.594 35.1593 105.64 35.3111 105.908 35.0231C106.118 34.7973 106.218 34.3841 106.131 34.1039C106.041 33.8133 105.878 33.9894 105.75 34.514ZM3.22653 42.6103C3.3228 42.7775 3.51532 43.9998 3.65485 45.3265C3.8737 47.4082 3.82791 47.738 3.32099 47.738C2.19179 47.738 3.02788 51.2481 4.58071 53.0273C5.37822 53.9411 4.89546 54.7501 4.01935 53.9678C2.36773 52.4925 0.889891 44.3436 2.01044 42.8904C2.50726 42.2463 2.95793 42.1423 3.22653 42.6103ZM177.957 42.8904C179.078 44.3436 177.6 52.4925 175.948 53.9678C174.972 54.8397 174.624 53.8926 175.533 52.8367C177.043 51.0825 177.773 47.738 176.646 47.738C176.139 47.738 176.094 47.4082 176.313 45.3265C176.649 42.1264 176.984 41.6293 177.957 42.8904ZM50.2056 46.477C50.3704 47.9177 50.5049 52.5011 50.5049 56.6627C50.5049 63.4509 50.4205 64.5179 49.6854 67.0358C49.0955 69.0544 48.466 70.2941 47.4428 71.452C46.1788 72.8819 45.8893 73.0336 44.8502 72.8097C42.4198 72.2866 39.8827 69.4304 37.6687 64.7255C36.1407 61.4777 36.3887 61.508 38.3688 64.8113C40.2292 67.9143 43.7686 71.7958 44.7384 71.7958C46.495 71.7958 47.8838 69.5161 48.7227 65.2552C49.3385 62.1292 49.3926 54.2251 48.8345 48.9429C48.4058 44.8872 48.5169 43.8578 49.3832 43.8578C49.7596 43.8578 49.9907 44.5939 50.2056 46.477ZM131.164 44.0638C131.588 44.2388 131.589 45.0094 131.172 49.2052C130.49 56.0717 130.754 64.6343 131.742 67.7215C132.478 70.019 133.859 71.7958 134.908 71.7958C136.679 71.7958 138.825 69.4059 142.107 63.7803C143.183 61.9348 144.064 60.5612 144.064 60.7281C144.064 61.6632 140.382 68.3551 138.911 70.0931C135.191 74.4883 132.142 73.4022 130.277 67.0164C129.548 64.5214 129.463 63.4365 129.463 56.6627C129.463 48.9471 129.821 43.8578 130.363 43.8578C130.529 43.8578 130.89 43.9505 131.164 44.0638ZM30.8556 60.1736C30.8556 60.8918 28.6552 61.6415 27.5495 61.3C26.9881 61.127 26.5291 61.066 26.5291 61.165C26.5291 61.6966 28.6538 65.7507 30.19 68.1503C32.4221 71.6371 36.794 76.2212 38.84 77.2204C40.6932 78.1257 42.6989 78.2223 43.6752 77.454C44.4778 76.8223 44.5304 76.889 42.3812 75.8115C39.0427 74.1375 36.7212 71.0333 33.1353 63.4485C31.5464 60.0878 30.8556 59.0952 30.8556 60.1736ZM147.319 62.8711C144.015 69.936 141.298 73.5547 137.618 75.7917C135.839 76.8731 135.733 77.014 136.335 77.4878C137.27 78.2231 139.302 78.1121 141.114 77.227C142.907 76.3512 146.681 72.5951 148.965 69.4129C150.392 67.4239 153.421 61.8906 153.433 61.2492C153.436 61.1041 152.932 61.1413 152.314 61.3322C151.11 61.7039 149.323 61.0171 149.019 60.0661C148.932 59.7948 148.167 61.0571 147.319 62.8711ZM104.404 93.3333C103.33 94.7251 92.9293 95.6114 84.0561 95.067C80.4983 94.8489 77.5516 94.6309 77.5077 94.5827C77.4637 94.5346 77.5354 88.6459 77.6667 81.4965L77.9057 68.4975L79.6954 68.6C80.6797 68.6563 81.6203 68.8479 81.7854 69.0256C81.9509 69.2038 82.5152 73.3921 83.0397 78.3329C83.564 83.274 84.1242 87.3169 84.2843 87.3169C84.4448 87.3169 84.5756 83.3008 84.5756 78.3923V69.4676H86.3311C88.0797 69.4676 88.0876 69.4734 88.3101 70.9227C88.433 71.7232 88.5473 73.6874 88.5643 75.288C88.5812 76.8887 88.7251 78.984 88.8837 79.9444C89.0914 81.2012 89.1851 79.9979 89.2176 75.652L89.2626 69.6135L94.0397 69.1673C96.6861 68.9201 100.103 68.3253 101.701 67.8332L104.585 66.9454L104.68 79.8982C104.743 88.3708 104.647 93.0178 104.404 93.3333ZM43.6994 99.981C40.3211 101.097 37.9044 103.341 36.5514 106.619C35.447 109.293 34.9686 114.376 35.4719 118.091C36.5654 126.165 40.8839 130 48.8824 130C58.3411 130 63.0224 124.253 62.4751 113.315C62.2227 108.27 61.2633 105.579 58.7846 102.962C57.2725 101.365 56.3838 100.786 54.4661 100.149C51.5508 99.1793 46.3684 99.0986 43.6994 99.981ZM84.7559 99.5068C84.5576 99.5895 83.5128 99.9507 82.4344 100.31C76.8587 102.164 74.1125 107 74.1244 114.943C74.1359 122.563 77.3043 127.554 83.3264 129.439C86.3884 130.397 93.2163 130.069 96.6536 128.798L99.1774 127.866L99.2805 124.083C99.3825 120.351 99.3959 120.299 100.272 120.299C101.142 120.299 101.16 120.235 101.16 117.195V114.091H94.8509H88.5415V117.195C88.5415 120.248 88.5567 120.299 89.4429 120.299C90.4625 120.299 90.6565 121.243 89.8737 122.395C89.2413 123.327 86.9317 123.389 86.1021 122.497C85.5657 121.921 85.4633 120.878 85.38 115.145C85.2646 107.229 85.4352 106.586 87.6943 106.408C89.6415 106.253 90.3442 107.012 90.3442 109.268V110.987H94.8621H99.38L99.2787 106.233L99.1774 101.48L96.6536 100.556C94.6591 99.825 93.1849 99.6026 89.6232 99.494C87.1445 99.4183 84.9542 99.4242 84.7559 99.5068ZM2.0126 103.032C2.0126 106.291 2.02306 106.33 2.91395 106.33H3.81529V114.867V123.404H2.91395C2.02775 123.404 2.0126 123.455 2.0126 126.508V129.612H7.96147H13.9103V126.508C13.9103 123.455 13.8952 123.404 13.009 123.404H12.1076V118.165C12.1076 115.284 12.1596 112.927 12.223 112.927C12.2868 112.927 14.5986 116.684 17.3607 121.276L22.383 129.624L27.4305 129.521L32.478 129.418L32.5735 117.901L32.6691 106.383L33.4749 106.26C34.2324 106.144 34.2807 105.95 34.2807 103.032V99.9278L28.422 99.8211L22.5632 99.7144V103.022C22.5632 106.292 22.5737 106.33 23.4646 106.33H24.3659V110.676C24.3659 113.066 24.2322 114.856 24.0688 114.653C23.9051 114.451 21.7755 111.011 19.3357 107.009L14.9 99.7338H8.45613H2.0126V103.032ZM109.331 100.025C109.195 100.267 105.065 116.207 103.701 121.754C103.399 122.986 103.117 123.404 102.588 123.404C101.945 123.404 101.881 123.683 101.881 126.508V129.612H108.011H114.14V126.508C114.14 123.455 114.125 123.404 113.238 123.404C112.526 123.404 112.337 123.208 112.337 122.465C112.337 120.533 112.628 120.299 115.035 120.299C117.277 120.299 117.296 120.309 117.52 121.512C117.859 123.338 117.829 123.404 116.663 123.404H115.582V126.516V129.628L122.702 129.523L129.823 129.418L129.928 126.44C130.028 123.605 129.994 123.456 129.218 123.336C128.475 123.22 128.161 122.263 125.62 112.345C124.088 106.369 122.741 101.087 122.627 100.607C122.421 99.7423 122.356 99.7338 115.957 99.7338C112.403 99.7338 109.421 99.8646 109.331 100.025ZM130.8 102.935C130.897 105.92 130.959 106.145 131.716 106.26L132.527 106.384V114.894V123.404H131.626C130.74 123.404 130.724 123.455 130.724 126.508V129.612H137.575H144.425V126.508C144.425 123.455 144.41 123.404 143.523 123.404H142.622V114.867V106.33H143.523C144.414 106.33 144.425 106.291 144.425 103.032V99.7338H137.56H130.695L130.8 102.935ZM145.867 103.032C145.867 106.298 145.876 106.33 146.776 106.33H147.684L147.587 114.77C147.49 123.191 147.488 123.21 146.678 123.334C145.915 123.45 145.867 123.639 145.867 126.535V129.612H151.636H157.404V126.508C157.404 123.662 157.344 123.404 156.683 123.404C155.996 123.404 155.963 123.149 155.974 118.068C155.983 113.757 156.069 112.864 156.424 113.415C156.666 113.79 158.972 117.582 161.55 121.841L166.237 129.585L171.189 129.598L176.142 129.612L176.237 117.874L176.332 106.136L177.144 106.012C177.907 105.896 177.955 105.707 177.955 102.811V99.7338H172.186H166.418V103.032C166.418 106.071 166.474 106.33 167.139 106.33C167.815 106.33 167.859 106.586 167.852 110.502L167.844 114.673L163.302 107.203L158.761 99.7338H152.314H145.867V103.032ZM50.7313 106.972C51.1109 107.464 51.2259 109.267 51.2259 114.719C51.2259 122.594 51.0752 123.145 48.9189 123.145C46.7859 123.145 46.7192 122.889 46.7192 114.703C46.7192 109.433 46.8454 107.126 47.1519 106.796C47.7961 106.103 50.1501 106.219 50.7313 106.972ZM116.292 115.352C116.3 115.889 115.997 116.031 114.837 116.031C113.612 116.031 113.4 115.919 113.55 115.352C113.649 114.979 113.914 113.625 114.14 112.345C114.853 108.294 114.936 108.251 115.631 111.569C115.988 113.276 116.286 114.979 116.292 115.352Z" fill="white"/>
</svg>
