<svg width="129" height="129" viewBox="0 0 129 129" fill="none" xmlns="http://www.w3.org/2000/svg">
<path fill-rule="evenodd" clip-rule="evenodd" d="M64.5 112.875C91.2164 112.875 112.875 91.2164 112.875 64.5C112.875 37.7836 91.2164 16.125 64.5 16.125C37.7836 16.125 16.125 37.7836 16.125 64.5C16.125 91.2164 37.7836 112.875 64.5 112.875ZM64.5 118.25C94.1861 118.25 118.25 94.1861 118.25 64.5C118.25 34.8139 94.1861 10.75 64.5 10.75C34.8139 10.75 10.75 34.8139 10.75 64.5C10.75 94.1861 34.8139 118.25 64.5 118.25Z" fill="#246EE3"/>
<path d="M32.25 95.7557C32.25 92.9796 34.3248 90.6334 37.0875 90.327C57.8216 88.0319 71.2725 88.2388 91.9609 90.3781C92.994 90.4865 93.9731 90.8935 94.7787 91.5494C95.5843 92.2052 96.1815 93.0814 96.4973 94.071C96.8131 95.0606 96.8339 96.1208 96.5571 97.122C96.2803 98.1232 95.7179 99.0222 94.9386 99.7091C70.5227 120.991 56.5692 120.698 33.97 99.7306C32.8681 98.7093 32.25 97.2581 32.25 95.7584V95.7557Z" fill="#246EE3"/>
<path fill-rule="evenodd" clip-rule="evenodd" d="M91.6841 93.0493C71.1596 90.9262 57.9022 90.7273 37.3805 92.9982C35.9991 93.1514 34.9375 94.3312 34.9375 95.7583C34.9375 96.5269 35.2573 97.2552 35.7975 97.7605C46.999 108.15 55.4861 112.845 63.7825 112.875C72.1083 112.905 81.0523 108.247 93.1729 97.6852C93.558 97.3425 93.8352 96.8953 93.9709 96.398C94.1065 95.9006 94.0948 95.3746 93.9371 94.8838C93.7794 94.3931 93.4825 93.9587 93.0825 93.6335C92.6825 93.3083 92.1967 93.1063 91.6841 93.052V93.0493ZM36.7919 87.6555C57.7436 85.3362 71.3908 85.5458 92.2404 87.7039C93.7946 87.8661 95.2677 88.4779 96.4795 89.4645C97.6913 90.4511 98.5892 91.7696 99.0632 93.2586C99.5372 94.7476 99.5668 96.3425 99.1483 97.8481C98.7298 99.3536 97.8814 100.704 96.707 101.735C84.4117 112.453 74.1723 118.29 63.7663 118.25C53.3308 118.212 43.5429 112.276 32.1452 101.7C31.3292 100.94 30.6786 100.02 30.2342 98.9972C29.7899 97.9743 29.5612 96.8708 29.5625 95.7556C29.5586 93.7519 30.2941 91.8172 31.628 90.322C32.962 88.8269 34.8007 87.8765 36.7919 87.6528V87.6555Z" fill="#246EE3"/>
<path d="M86 53.75C86 59.4522 83.7348 64.9208 79.7028 68.9528C75.6708 72.9848 70.2022 75.25 64.5 75.25C58.7978 75.25 53.3292 72.9848 49.2972 68.9528C45.2652 64.9208 43 59.4522 43 53.75C43 48.0478 45.2652 42.5792 49.2972 38.5472C53.3292 34.5152 58.7978 32.25 64.5 32.25C70.2022 32.25 75.6708 34.5152 79.7028 38.5472C83.7348 42.5792 86 48.0478 86 53.75V53.75Z" fill="#246EE3"/>
<path fill-rule="evenodd" clip-rule="evenodd" d="M64.5 69.875C68.7766 69.875 72.8781 68.1761 75.9021 65.1521C78.9261 62.1281 80.625 58.0266 80.625 53.75C80.625 49.4734 78.9261 45.3719 75.9021 42.3479C72.8781 39.3239 68.7766 37.625 64.5 37.625C60.2234 37.625 56.1219 39.3239 53.0979 42.3479C50.0739 45.3719 48.375 49.4734 48.375 53.75C48.375 58.0266 50.0739 62.1281 53.0979 65.1521C56.1219 68.1761 60.2234 69.875 64.5 69.875V69.875ZM64.5 75.25C70.2022 75.25 75.6708 72.9848 79.7028 68.9528C83.7348 64.9208 86 59.4522 86 53.75C86 48.0478 83.7348 42.5792 79.7028 38.5472C75.6708 34.5152 70.2022 32.25 64.5 32.25C58.7978 32.25 53.3292 34.5152 49.2972 38.5472C45.2652 42.5792 43 48.0478 43 53.75C43 59.4522 45.2652 64.9208 49.2972 68.9528C53.3292 72.9848 58.7978 75.25 64.5 75.25V75.25Z" fill="#246EE3"/>
</svg>
