<svg width="40" height="30" viewBox="0 0 40 30" fill="none" xmlns="http://www.w3.org/2000/svg">
<path d="M17.5 30C17.5 30 15 30 15 27.5C15 25 17.5 17.5 27.5 17.5C37.5 17.5 40 25 40 27.5C40 30 37.5 30 37.5 30H17.5ZM27.5 15C29.4891 15 31.3968 14.2098 32.8033 12.8033C34.2098 11.3968 35 9.48912 35 7.5C35 5.51088 34.2098 3.60322 32.8033 2.1967C31.3968 0.790177 29.4891 0 27.5 0C25.5109 0 23.6032 0.790177 22.1967 2.1967C20.7902 3.60322 20 5.51088 20 7.5C20 9.48912 20.7902 11.3968 22.1967 12.8033C23.6032 14.2098 25.5109 15 27.5 15Z" fill="#246EE3"/>
<path fill-rule="evenodd" clip-rule="evenodd" d="M13.04 29.9996C12.6694 29.2191 12.4846 28.3635 12.5 27.4996C12.5 24.1121 14.2 20.6246 17.34 18.1996C15.7727 17.7167 14.1399 17.4805 12.5 17.4996C2.5 17.4996 0 24.9996 0 27.4996C0 29.9996 2.5 29.9996 2.5 29.9996H13.04Z" fill="#246EE3"/>
<path d="M11.25 15C12.9076 15 14.4973 14.3415 15.6694 13.1694C16.8415 11.9973 17.5 10.4076 17.5 8.75C17.5 7.0924 16.8415 5.50269 15.6694 4.33058C14.4973 3.15848 12.9076 2.5 11.25 2.5C9.5924 2.5 8.00269 3.15848 6.83058 4.33058C5.65848 5.50269 5 7.0924 5 8.75C5 10.4076 5.65848 11.9973 6.83058 13.1694C8.00269 14.3415 9.5924 15 11.25 15Z" fill="#246EE3"/>
</svg>
