<svg width="40" height="30" viewBox="0 0 40 30" fill="none" xmlns="http://www.w3.org/2000/svg">
<g clip-path="url(#clip0_422_149)">
<path fill-rule="evenodd" clip-rule="evenodd" d="M12.5 0C11.837 0 11.2011 0.169324 10.7322 0.470721C10.2634 0.772119 10 1.1809 10 1.60714V8.03571C10 8.92286 11.12 9.64286 12.5 9.64286H27.5C28.163 9.64286 28.7989 9.47353 29.2678 9.17214C29.7366 8.87074 30 8.46196 30 8.03571V1.60714C30 1.1809 29.7366 0.772119 29.2678 0.470721C28.7989 0.169324 28.163 0 27.5 0H12.5ZM15 6.42857V3.21429H25V6.42857H15ZM5.42 5.42786C5.99375 5.21417 6.41196 4.86271 6.58261 4.4508C6.75327 4.03889 6.6624 3.60027 6.33 3.23143C5.99759 2.86259 5.45088 2.59374 4.81013 2.48403C4.16938 2.37432 3.48709 2.43274 2.91333 2.64643C2.02744 2.97573 1.29189 3.44906 0.780528 4.01889C0.269164 4.58872 -1.9491e-05 5.235 1.05852e-09 5.89286V26.25C1.05852e-09 28.32 2.61333 30 5.83333 30H34.1667C35.7138 30 37.1975 29.6049 38.2915 28.9016C39.3854 28.1984 40 27.2446 40 26.25V5.89286C40 5.235 39.7308 4.58872 39.2195 4.01889C38.7081 3.44906 37.9726 2.97573 37.0867 2.64643C36.5129 2.43274 35.8306 2.37432 35.1899 2.48403C34.5491 2.59374 34.0024 2.86259 33.67 3.23143C33.3376 3.60027 33.2467 4.03889 33.4174 4.4508C33.588 4.86271 34.0062 5.21417 34.58 5.42786C34.7075 5.47469 34.8136 5.54237 34.8873 5.62403C34.9611 5.70569 35 5.79843 35 5.89286V26.25C35 26.3921 34.9122 26.5283 34.7559 26.6288C34.5996 26.7293 34.3877 26.7857 34.1667 26.7857H5.83333C5.61232 26.7857 5.40036 26.7293 5.24408 26.6288C5.0878 26.5283 5 26.3921 5 26.25V5.89286C5.00005 5.79843 5.03892 5.70569 5.11268 5.62403C5.18643 5.54237 5.29245 5.47469 5.42 5.42786Z" fill="#246EE3"/>
<g clip-path="url(#clip1_422_149)">
<path d="M16.9327 14.3306H15.066C14.9599 14.3306 14.8582 14.3729 14.7832 14.4482C14.7082 14.5236 14.666 14.6258 14.666 14.7324V20.6252C14.666 20.678 14.6764 20.7302 14.6965 20.779C14.7166 20.8277 14.746 20.872 14.7832 20.9093C14.8203 20.9466 14.8644 20.9762 14.9129 20.9964C14.9615 21.0166 15.0135 21.027 15.066 21.027H16.9327C16.9852 21.027 17.0372 21.0166 17.0858 20.9964C17.1343 20.9762 17.1784 20.9466 17.2155 20.9093C17.2527 20.872 17.2821 20.8277 17.3022 20.779C17.3223 20.7302 17.3327 20.678 17.3327 20.6252V14.7324C17.3327 14.6258 17.2905 14.5236 17.2155 14.4482C17.1405 14.3729 17.0388 14.3306 16.9327 14.3306V14.3306Z" stroke="#246EE3" stroke-width="1.5" stroke-linecap="round" stroke-linejoin="round"/>
<path d="M24.9327 14.3306H23.066C22.9599 14.3306 22.8582 14.3729 22.7832 14.4482C22.7082 14.5236 22.666 14.6258 22.666 14.7324V20.6252C22.666 20.678 22.6764 20.7302 22.6965 20.779C22.7166 20.8277 22.746 20.872 22.7832 20.9093C22.8203 20.9466 22.8644 20.9762 22.9129 20.9964C22.9615 21.0166 23.0135 21.027 23.066 21.027H24.9327C24.9852 21.027 25.0372 21.0166 25.0858 20.9964C25.1343 20.9762 25.1784 20.9466 25.2155 20.9093C25.2527 20.872 25.2821 20.8277 25.3022 20.779C25.3223 20.7302 25.3327 20.678 25.3327 20.6252V14.7324C25.3327 14.6258 25.2905 14.5236 25.2155 14.4482C25.1405 14.3729 25.0388 14.3306 24.9327 14.3306V14.3306Z" stroke="#246EE3" stroke-width="1.5" stroke-linecap="round" stroke-linejoin="round"/>
<path d="M12.666 19.286V16.0717C12.666 15.9651 12.7082 15.863 12.7832 15.7876C12.8582 15.7123 12.9599 15.6699 13.066 15.6699H14.266C14.3721 15.6699 14.4738 15.7123 14.5489 15.7876C14.6239 15.863 14.666 15.9651 14.666 16.0717V19.286C14.666 19.3926 14.6239 19.4947 14.5489 19.5701C14.4738 19.6454 14.3721 19.6878 14.266 19.6878H13.066C12.9599 19.6878 12.8582 19.6454 12.7832 19.5701C12.7082 19.4947 12.666 19.3926 12.666 19.286V19.286Z" stroke="#246EE3" stroke-width="1.5" stroke-linecap="round" stroke-linejoin="round"/>
<path d="M27.332 19.286V16.0717C27.332 15.9651 27.2899 15.863 27.2149 15.7876C27.1399 15.7123 27.0381 15.6699 26.932 15.6699H25.732C25.6259 15.6699 25.5242 15.7123 25.4492 15.7876C25.3742 15.863 25.332 15.9651 25.332 16.0717V19.286C25.332 19.3926 25.3742 19.4947 25.4492 19.5701C25.5242 19.6454 25.6259 19.6878 25.732 19.6878H26.932C27.0381 19.6878 27.1399 19.6454 27.2149 19.5701C27.2899 19.4947 27.332 19.3926 27.332 19.286V19.286Z" stroke="#246EE3" stroke-width="1.5" stroke-linecap="round" stroke-linejoin="round"/>
<path d="M17.332 17.6787H22.6654" stroke="#246EE3" stroke-width="1.5" stroke-linecap="round" stroke-linejoin="round"/>
</g>
</g>
<defs>
<clipPath id="clip0_422_149">
<rect width="40" height="30" fill="white"/>
</clipPath>
<clipPath id="clip1_422_149">
<rect width="16" height="16.0714" fill="white" transform="translate(12 9.64307)"/>
</clipPath>
</defs>
</svg>
