<svg width="40" height="30" viewBox="0 0 40 30" fill="none" xmlns="http://www.w3.org/2000/svg">
<path d="M35.9083 11.0985L29.291 2.09997L32.442 0L39.0574 8.99858L35.9083 11.0985Z" fill="white"/>
<path d="M32.2853 15.7491L28.9786 11.247L13.2293 21.7487L16.536 26.2471L13.3869 28.3489L4.56641 16.3496L7.7155 14.2496L11.0222 18.7498L26.7715 8.24813L23.4648 3.74792L26.6139 1.64795L35.4344 13.6454L32.2853 15.7472V15.7491Z" fill="white"/>
<path d="M36.8516 5.99781L40.0007 3.89784L37.7956 0.898926L34.6465 2.9989L36.8516 5.99781Z" fill="white"/>
<path d="M10.7098 27.8999L4.09245 18.9014L0.943359 21.0013L7.55876 29.9999L10.7098 27.8999V27.8999Z" fill="white"/>
<path d="M5.35422 27.0014L2.20513 29.1013L0 26.1024L3.14909 24.0024L5.35422 27.0014Z" fill="white"/>
</svg>
