<svg width="40" height="30" viewBox="0 0 40 30" fill="none" xmlns="http://www.w3.org/2000/svg">
<path d="M17.1622 12.613C21.916 12.613 25.7698 9.78948 25.7698 6.3065C25.7698 2.82351 21.916 0 17.1622 0C12.4084 0 8.55469 2.82351 8.55469 6.3065C8.55469 9.78948 12.4084 12.613 17.1622 12.613Z" fill="#246EE3"/>
<path d="M22.6777 24.1426H32.0048V25.5093H22.6777V24.1426Z" fill="#246EE3"/>
<path d="M14.6837 26.095V29.0237C14.6837 29.2826 14.8241 29.5309 15.074 29.714C15.3238 29.8971 15.6627 29.9999 16.0161 29.9999H38.6676C39.0209 29.9999 39.3599 29.8971 39.6097 29.714C39.8596 29.5309 40 29.2826 40 29.0237V19.2613C40 19.0024 39.8596 18.7541 39.6097 18.571C39.3599 18.3879 39.0209 18.2851 38.6676 18.2851H29.3405V16.85C29.3405 16.5911 29.2001 16.3428 28.9502 16.1597C28.7004 15.9766 28.3614 15.8738 28.0081 15.8738C27.6547 15.8738 27.3158 15.9766 27.0659 16.1597C26.816 16.3428 26.6756 16.5911 26.6756 16.85V18.2851H24.0108V14.7901C21.7465 14.5192 19.4562 14.3821 17.162 14.3801C12.1025 14.3643 7.09965 15.1607 2.50521 16.7133C1.74903 16.9748 1.11109 17.3897 0.667084 17.9088C0.223076 18.4279 -0.00836224 19.0294 0.000230883 19.642V26.095H14.6837ZM37.3351 28.0474H17.3486V20.2375H26.6756V20.6476C26.6756 20.9065 26.816 21.1548 27.0659 21.3379C27.3158 21.5209 27.6547 21.6238 28.0081 21.6238C28.3614 21.6238 28.7004 21.5209 28.9502 21.3379C29.2001 21.1548 29.3405 20.9065 29.3405 20.6476V20.2375H37.3351V28.0474Z" fill="#246EE3"/>
</svg>
