<svg width="40" height="30" viewBox="0 0 40 30" fill="none" xmlns="http://www.w3.org/2000/svg">
<path d="M1.1182 0.838649C1.8344 0.301662 2.80564 0 3.81835 0C4.83105 0 5.8023 0.301662 6.5185 0.838649L20.0231 10.9671L33.5276 0.838649C34.2479 0.316881 35.2126 0.0281681 36.214 0.0346944C37.2154 0.0412206 38.1733 0.342464 38.8814 0.873542C39.5895 1.40462 39.9912 2.12304 39.9999 2.87407C40.0086 3.6251 39.6236 4.34865 38.9279 4.88887L25.4234 15.0173L38.9279 25.1457C39.6236 25.6859 40.0086 26.4095 39.9999 27.1605C39.9912 27.9115 39.5895 28.63 38.8814 29.161C38.1733 29.6921 37.2154 29.9934 36.214 29.9999C35.2126 30.0064 34.2479 29.7177 33.5276 29.1959L20.0231 19.0675L6.5185 29.1959C5.79819 29.7177 4.83346 30.0064 3.83209 29.9999C2.83072 29.9934 1.87283 29.6921 1.16472 29.161C0.456618 28.63 0.0549608 27.9115 0.0462592 27.1605C0.0375575 26.4095 0.422508 25.6859 1.1182 25.1457L14.6228 15.0173L1.1182 4.88887C0.402216 4.35172 0 3.62329 0 2.86376C0 2.10423 0.402216 1.3758 1.1182 0.838649V0.838649Z" fill="white"/>
</svg>
