<svg width="40" height="30" viewBox="0 0 40 30" fill="none" xmlns="http://www.w3.org/2000/svg">
<path d="M21.3167 26.2502L5 14.0127V17.5502L21.3167 29.7877L36.3833 18.4877L34.0167 16.7252L21.3167 26.2502Z" fill="white"/>
<path d="M5 11.3L21.3167 23.5375L36.3833 12.2375L20.0667 0H5V11.3ZM12.0833 3.75C12.6359 3.75 13.1658 3.91462 13.5565 4.20765C13.9472 4.50067 14.1667 4.8981 14.1667 5.3125C14.1667 5.7269 13.9472 6.12433 13.5565 6.41735C13.1658 6.71038 12.6359 6.875 12.0833 6.875C11.5308 6.875 11.0009 6.71038 10.6102 6.41735C10.2195 6.12433 10 5.7269 10 5.3125C10 4.8981 10.2195 4.50067 10.6102 4.20765C11.0009 3.91462 11.5308 3.75 12.0833 3.75Z" fill="white"/>
</svg>
