<svg width="55" height="55" viewBox="0 0 55 55" fill="none" xmlns="http://www.w3.org/2000/svg">
<path d="M55 43.7945C55 45 54.5679 46.0247 53.7037 46.8686L47.4074 53.0168C46.5432 53.8606 45.4938 54.2825 44.2593 54.2825C43.0247 54.2825 41.9753 53.8606 41.1111 53.0168L27.5 39.7259L13.8889 53.0168C13.0247 53.8606 11.9753 54.2825 10.7407 54.2825C9.50617 54.2825 8.45679 53.8606 7.59259 53.0168L1.2963 46.8686C0.432099 46.0247 0 45 0 43.7945C0 42.589 0.432099 41.5643 1.2963 40.7205L14.9074 27.4296L1.2963 14.1388C0.432099 13.2949 0 12.2702 0 11.0647C0 9.85916 0.432099 8.83447 1.2963 7.9906L7.59259 1.84246C8.45679 0.998592 9.50617 0.57666 10.7407 0.57666C11.9753 0.57666 13.0247 0.998592 13.8889 1.84246L27.5 15.1333L41.1111 1.84246C41.9753 0.998592 43.0247 0.57666 44.2593 0.57666C45.4938 0.57666 46.5432 0.998592 47.4074 1.84246L53.7037 7.9906C54.5679 8.83447 55 9.85916 55 11.0647C55 12.2702 54.5679 13.2949 53.7037 14.1388L40.0926 27.4296L53.7037 40.7205C54.5679 41.5643 55 42.589 55 43.7945Z" fill="white"/>
</svg>
