<svg width="23" height="45" viewBox="0 0 23 45" fill="none" xmlns="http://www.w3.org/2000/svg">
<path d="M19.2187 44.375C18.7519 44.3766 18.2906 44.2736 17.8688 44.0735C17.447 43.8734 17.0753 43.5813 16.7812 43.2188L1.68746 24.4688C1.22783 23.9096 0.976562 23.2082 0.976562 22.4844C0.976562 21.7606 1.22783 21.0592 1.68746 20.5L17.3125 1.75001C17.8429 1.11183 18.6051 0.710504 19.4314 0.634317C20.2578 0.558131 21.0805 0.813324 21.7187 1.34376C22.3569 1.87419 22.7582 2.63641 22.8344 3.46275C22.9106 4.28908 22.6554 5.11183 22.125 5.75001L8.15621 22.5L21.6562 39.25C22.0383 39.7087 22.2811 40.2673 22.3557 40.8596C22.4303 41.452 22.3337 42.0533 22.0773 42.5924C21.8209 43.1316 21.4154 43.586 20.9088 43.9019C20.4022 44.2178 19.8157 44.382 19.2187 44.375Z" fill="white"/>
</svg>
